<?xml version="1.0" standalone="no"?>
<!DOCTYPE svg PUBLIC "-//W3C//DTD SVG 20010904//EN"
 "http://www.w3.org/TR/2001/REC-SVG-20010904/DTD/svg10.dtd">
<svg version="1.0" xmlns="http://www.w3.org/2000/svg"
 width="100.000000pt" height="100.000000pt" viewBox="0 0 100.000000 100.000000"
 preserveAspectRatio="xMidYMid meet">
<metadata>
Created by potrace 1.15, written by Peter Selinger 2001-2017
</metadata>
<g transform="translate(0.000000,100.000000) scale(0.100000,-0.100000)"
fill="#000000" stroke="none">
<path d="M36 964 c-14 -14 -16 -70 -16 -464 0 -394 2 -450 16 -464 13 -14 51
-16 255 -16 l239 0 0 185 0 185 -65 0 -66 0 3 73 3 72 63 3 62 3 0 67 c0 167
68 237 225 230 l70 -3 3 -67 3 -68 -54 0 c-74 0 -85 -11 -89 -93 l-3 -67 73 0
73 0 -6 -47 c-14 -110 -9 -103 -78 -103 l-62 0 0 -185 0 -185 132 0 c106 0
135 3 147 16 14 14 16 70 16 464 0 394 -2 450 -16 464 -14 14 -70 16 -464 16
-394 0 -450 -2 -464 -16z"/>
</g>
</svg>
